<?xml version="1.0" encoding="UTF-8"?>
<svg width="748px" height="349px" viewBox="0 0 748 349" version="1.1" xmlns="http://www.w3.org/2000/svg" xmlns:xlink="http://www.w3.org/1999/xlink">
    <!-- Generator: Sketch 55 (78076) - https://sketchapp.com -->
    <title>illustration-404</title>
    <desc>Created with Sketch.</desc>
    <g id="Page-1" stroke="none" stroke-width="1" fill="none" fill-rule="evenodd">
        <g id="404" transform="translate(-346.000000, -311.000000)" fill="#383838">
            <g id="Content" transform="translate(345.000000, 270.000000)">
                <g id="illustration-404" transform="translate(1.000000, 41.000000)">
                    <path d="M478.0639,343.8772 C478.0639,346.5032 475.9739,348.5922 473.3469,348.5922 L454.6429,348.5922 C452.0699,348.5922 449.9269,346.5032 449.9269,343.8772 L449.9269,342.9122 C448.5869,342.6972 447.5679,341.5182 447.5679,340.0712 L447.5679,336.6412 C447.5679,335.2482 448.5869,334.0682 449.9269,333.8002 L449.9269,332.8362 C449.9269,330.2102 452.0699,328.1202 454.6429,328.1202 L473.3469,328.1202 C475.9739,328.1202 478.0639,330.2102 478.0639,332.8362 L478.0639,335.3552 L509.8459,335.3552 C523.0849,335.3552 533.9109,324.5282 533.9109,311.3442 L533.9109,205.6452 L539.9129,205.6452 L539.9129,311.3442 C539.9129,327.8512 526.4069,341.3572 509.8459,341.3572 L478.0639,341.3572 L478.0639,343.8772 Z M458.8239,340.0712 L458.8239,339.7502 L466.8089,339.7502 C466.9699,339.7502 467.1309,339.5892 467.1309,339.4282 L467.1309,337.3382 C467.1309,337.1242 466.9699,337.0162 466.8089,337.0162 L458.8239,337.0162 L458.8239,336.6412 C458.8239,336.3732 458.5549,336.1052 458.2879,336.1052 L450.5159,336.1052 C450.1949,336.1052 449.9269,336.3732 449.9269,336.6412 L449.9269,340.0712 C449.9269,340.3922 450.1949,340.6072 450.5159,340.6072 L458.2879,340.6072 C458.5549,340.6072 458.8239,340.3922 458.8239,340.0712 Z M463.9689,345.6452 L463.9689,342.1082 L460.3779,342.1082 C459.8419,342.6432 459.0919,342.9662 458.2879,342.9662 L452.9279,342.9662 L452.9279,343.8772 C452.9279,344.8422 453.7319,345.6452 454.6429,345.6452 L463.9689,345.6452 Z M452.9279,333.7472 L458.2879,333.7472 C459.0919,333.7472 459.8419,334.0682 460.3779,334.6042 L463.9689,334.6042 L463.9689,331.1212 L454.6429,331.1212 C453.7319,331.1212 452.9279,331.8712 452.9279,332.8362 L452.9279,333.7472 Z" id="Fill-4"></path>
                    <path d="M583.9686,307.0561 L583.9686,304.4841 L563.9236,304.4841 C547.4166,304.4841 533.9106,290.9781 533.9106,274.4701 L533.9106,263.1081 L539.9126,263.1081 L539.9126,274.4701 C539.9126,287.7091 550.6866,298.5351 563.9236,298.5351 L583.9686,298.5351 L583.9686,295.9631 C583.9686,293.3891 586.1116,291.2461 588.6856,291.2461 L607.3896,291.2461 C609.9626,291.2461 612.1056,293.3891 612.1056,295.9631 L612.1056,296.9271 C613.4456,297.1951 614.4646,298.3741 614.4646,299.7671 L614.4646,303.1981 C614.4646,304.6441 613.4456,305.8241 612.1056,306.0921 L612.1056,307.0561 C612.1056,309.6291 609.9626,311.7731 607.3896,311.7731 L588.6856,311.7731 C586.1116,311.7731 583.9686,309.6291 583.9686,307.0561 Z M603.2096,303.1981 C603.2096,303.5191 603.4776,303.7331 603.7446,303.7331 L611.5696,303.7331 C611.8386,303.7331 612.1056,303.5191 612.1056,303.1981 L612.1056,299.7671 C612.1056,299.5001 611.8386,299.2311 611.5696,299.2311 L603.7446,299.2311 C603.4776,299.2311 603.2096,299.5001 603.2096,299.7671 L603.2096,300.1421 L595.2236,300.1421 C595.0636,300.1421 594.9016,300.3031 594.9016,300.4651 L594.9016,302.5541 C594.9016,302.7161 595.0636,302.8761 595.2236,302.8761 L603.2096,302.8761 L603.2096,303.1981 Z M598.0636,308.7711 L607.3896,308.7711 C608.3006,308.7711 609.1056,307.9681 609.1056,307.0561 L609.1056,306.1451 L603.7446,306.1451 C602.9406,306.1451 602.1906,305.7701 601.6546,305.2341 L598.0636,305.2341 L598.0636,308.7711 Z M609.1056,296.8741 L609.1056,295.9631 C609.1056,294.9981 608.3006,294.2471 607.3896,294.2471 L598.0636,294.2471 L598.0636,297.7851 L601.6546,297.7851 C602.1906,297.1951 602.9406,296.8741 603.7446,296.8741 L609.1056,296.8741 Z" id="Fill-8"></path>
                    <path d="M503.361,262.6828 C503.361,265.3088 501.217,267.3988 498.591,267.3988 L479.94,267.3988 C477.314,267.3988 475.223,265.3088 475.223,262.6828 L475.223,261.7178 C473.83,261.5038 472.812,260.3238 472.812,258.8778 L472.812,255.4468 C472.812,254.0538 473.83,252.8748 475.223,252.6068 L475.223,251.6428 C475.223,249.0158 477.314,246.9258 479.94,246.9258 L498.591,246.9258 C501.217,246.9258 503.361,249.0158 503.361,251.6428 L503.361,254.1608 L509.846,254.1608 C523.085,254.1608 533.911,243.3348 533.911,230.1498 L533.911,195.8408 L539.913,195.8408 L539.913,230.1498 C539.913,246.6578 526.407,260.1638 509.846,260.1638 L503.361,260.1638 L503.361,262.6828 Z M484.067,258.8778 L484.067,258.5558 L492.052,258.5558 C492.267,258.5558 492.374,258.3958 492.374,258.2338 L492.374,256.1448 C492.374,255.9298 492.267,255.8218 492.052,255.8218 L484.067,255.8218 L484.067,255.4468 C484.067,255.1798 483.852,254.9108 483.531,254.9108 L475.759,254.9108 C475.438,254.9108 475.223,255.1798 475.223,255.4468 L475.223,258.8778 C475.223,259.1988 475.438,259.4128 475.759,259.4128 L483.531,259.4128 C483.852,259.4128 484.067,259.1988 484.067,258.8778 Z M489.265,264.4508 L489.265,260.9138 L485.674,260.9138 C485.138,261.4498 484.388,261.7718 483.531,261.7718 L478.225,261.7718 L478.225,262.6828 C478.225,263.6478 478.975,264.4508 479.94,264.4508 L489.265,264.4508 Z M478.225,252.5528 L483.531,252.5528 C484.388,252.5528 485.138,252.8748 485.674,253.4638 L489.265,253.4638 L489.265,249.9268 L479.94,249.9268 C478.975,249.9268 478.225,250.6778 478.225,251.6428 L478.225,252.5528 Z" id="Fill-6"></path>
                    <path d="M622.1559,277.3885 C618.5079,273.5725 605.0269,265.0825 592.1979,258.5235 C574.5909,249.5205 565.7089,243.3305 555.9639,233.2755 C544.3659,221.3075 542.1449,219.9545 534.0969,219.9545 C527.8489,219.9545 522.8429,218.2055 517.5459,214.1725 C507.3599,206.4185 476.5449,195.1895 462.1569,193.9885 L450.5299,193.0185 L450.5299,181.6025 C450.5299,175.3245 449.6139,167.0005 448.4959,163.1065 C446.4769,156.0815 446.5769,155.9615 461.2199,147.7875 C474.8209,140.1965 506.1619,118.6605 515.3089,110.6205 C520.2559,106.2725 520.4679,88.4945 515.8619,64.4655 C514.0359,54.9365 512.5409,43.8695 512.5409,39.8725 C512.5409,33.5035 513.3949,32.4365 519.4619,31.2245 C523.2679,30.4655 528.7499,29.8435 531.6419,29.8435 C535.9879,29.8435 536.9019,28.7125 536.9019,23.3345 C536.9019,18.9835 539.4619,14.0375 544.6239,8.4125 L552.3449,0.0005 L576.5649,0.0005 L600.7859,0.0005 L609.3689,9.2805 C614.0909,14.3855 620.6449,19.5825 623.9349,20.8315 C628.2249,22.4595 629.9189,24.6595 629.9189,28.6055 C629.9189,32.0575 631.7759,35.0935 634.9019,36.7485 C637.6419,38.1995 641.1869,41.2195 642.7789,43.4575 C644.3709,45.6965 648.1069,47.5285 651.0839,47.5285 C655.5949,47.5285 656.4949,48.6085 656.4949,54.0295 C656.4949,57.6055 655.4679,61.1645 654.2119,61.9385 C652.9159,62.7385 652.5179,66.4815 653.2929,70.6035 C654.4309,76.6585 653.7099,78.6035 648.9309,82.3545 C637.5839,91.2645 643.5769,119.4025 658.4349,126.9715 C668.7519,132.2275 673.8929,138.0155 680.8049,152.1545 C685.9909,162.7625 687.3419,163.9025 699.5809,168.0055 C716.8649,173.7995 721.0499,180.4845 720.9809,202.1865 C720.9539,210.7425 721.8889,217.7435 723.0609,217.7435 C724.2319,217.7435 728.2259,222.6675 731.9359,228.6865 C735.6459,234.7045 740.6199,240.2425 742.9889,240.9935 C751.8879,243.8135 746.8169,246.0195 734.0859,244.8675 C725.7489,244.1125 718.3539,244.7125 714.0439,246.4945 C707.3739,249.2525 697.6969,261.3725 692.4339,273.5615 C689.5889,280.1525 689.3509,280.2175 666.4609,280.6875 C657.9339,280.8625 645.9689,281.7525 639.8729,282.6665 C629.3659,284.2415 628.4419,283.9655 622.1549,277.3885 L622.1559,277.3885 Z" id="Fill-1"></path>
                    <path d="M383.327,260.0844 L383.327,318.443 L385.846,318.443 C388.472,318.443 390.563,320.586 390.563,323.212 L390.563,341.864 C390.563,344.49 388.472,346.581 385.846,346.581 L384.881,346.581 C384.614,347.974 383.434,348.992 382.041,348.992 L378.611,348.992 C377.164,348.992 375.985,347.974 375.77,346.581 L374.806,346.581 C372.18,346.581 370.089,344.49 370.089,341.864 L370.089,323.212 C370.089,320.586 372.18,318.443 374.806,318.443 L377.325,318.443 L377.325,260.0844 L328.8027,260.0844 C312.2957,260.0844 298.7897,246.5784 298.7897,230.0704 L298.7897,180.5494 L296.2707,180.5494 C293.6447,180.5494 291.5537,178.4054 291.5537,175.7794 L291.5537,157.1284 C291.5537,154.5024 293.6447,152.4114 296.2707,152.4114 L297.2347,152.4114 C297.4497,151.0184 298.6287,150.0004 300.0757,150.0004 L303.5057,150.0004 C304.8997,150.0004 306.0787,151.0184 306.3467,152.4114 L307.3107,152.4114 C309.9377,152.4114 312.0277,154.5024 312.0277,157.1284 L312.0277,175.7794 C312.0277,178.4054 309.9377,180.5494 307.3107,180.5494 L304.7927,180.5494 L304.7927,230.0704 C304.7927,243.3094 315.5647,254.1354 328.8027,254.1354 L377.325,254.1354 L377.325,180.549 L374.806,180.549 C372.18,180.549 370.089,178.406 370.089,175.78 L370.089,157.128 C370.089,154.502 372.18,152.412 374.806,152.412 L375.77,152.412 C375.985,151.018 377.164,150 378.611,150 L382.041,150 C383.434,150 384.614,151.018 384.881,152.412 L385.846,152.412 C388.472,152.412 390.563,154.502 390.563,157.128 L390.563,175.78 C390.563,178.406 388.472,180.549 385.846,180.549 L383.327,180.549 L383.327,254.1354 L398.8467,254.1354 L398.8467,251.5634 C398.8467,248.9904 400.9917,246.8464 403.5637,246.8464 L422.2687,246.8464 C424.8407,246.8464 426.9847,248.9904 426.9847,251.5634 L426.9847,252.5274 C428.3247,252.7954 429.3427,253.9754 429.3427,255.3684 L429.3427,258.7984 C429.3427,260.2454 428.3247,261.4244 426.9847,261.6934 L426.9847,262.6574 C426.9847,265.2304 424.8407,267.3734 422.2687,267.3734 L403.5637,267.3734 C400.9917,267.3734 398.8467,265.2304 398.8467,262.6574 L398.8467,260.0844 L383.327,260.0844 Z M91.7723,260.0844 L91.7723,318.443 L94.2923,318.443 C96.9183,318.443 99.0083,320.586 99.0083,323.212 L99.0083,341.864 C99.0083,344.49 96.9183,346.581 94.2923,346.581 L93.3273,346.581 C93.0593,347.974 91.8803,348.992 90.4863,348.992 L87.0563,348.992 C85.6093,348.992 84.4303,347.974 84.2163,346.581 L83.2513,346.581 C80.6253,346.581 78.5353,344.49 78.5353,341.864 L78.5353,323.212 C78.5353,320.586 80.6253,318.443 83.2513,318.443 L85.7703,318.443 L85.7703,260.0844 L37.248,260.0844 C20.741,260.0844 7.235,246.5784 7.235,230.0704 L7.235,180.5494 L4.716,180.5494 C2.09,180.5494 9.9475983e-14,178.4054 9.9475983e-14,175.7794 L9.9475983e-14,157.1284 C9.9475983e-14,154.5024 2.09,152.4114 4.716,152.4114 L5.681,152.4114 C5.895,151.0184 7.075,150.0004 8.521,150.0004 L11.952,150.0004 C13.345,150.0004 14.524,151.0184 14.792,152.4114 L15.757,152.4114 C18.383,152.4114 20.473,154.5024 20.473,157.1284 L20.473,175.7794 C20.473,178.4054 18.383,180.5494 15.757,180.5494 L13.238,180.5494 L13.238,230.0704 C13.238,243.3094 24.011,254.1354 37.248,254.1354 L85.7703,254.1354 L85.7703,180.549 L83.2513,180.549 C80.6253,180.549 78.5353,178.406 78.5353,175.78 L78.5353,157.128 C78.5353,154.502 80.6253,152.412 83.2513,152.412 L84.2163,152.412 C84.4303,151.018 85.6093,150 87.0563,150 L90.4863,150 C91.8803,150 93.0593,151.018 93.3273,152.412 L94.2923,152.412 C96.9183,152.412 99.0083,154.502 99.0083,157.128 L99.0083,175.78 C99.0083,178.406 96.9183,180.549 94.2923,180.549 L91.7723,180.549 L91.7723,254.1354 L107.293,254.1354 L107.293,251.5634 C107.293,248.9904 109.437,246.8464 112.01,246.8464 L130.714,246.8464 C133.287,246.8464 135.431,248.9904 135.431,251.5634 L135.431,252.5274 C136.771,252.7954 137.789,253.9754 137.789,255.3684 L137.789,258.7984 C137.789,260.2454 136.771,261.4244 135.431,261.6934 L135.431,262.6574 C135.431,265.2304 133.287,267.3734 130.714,267.3734 L112.01,267.3734 C109.437,267.3734 107.293,265.2304 107.293,262.6574 L107.293,260.0844 L91.7723,260.0844 Z M135.431,258.7984 L135.431,255.3684 C135.431,255.1004 135.163,254.8324 134.895,254.8324 L127.07,254.8324 C126.802,254.8324 126.534,255.1004 126.534,255.3684 L126.534,255.7434 L118.548,255.7434 C118.388,255.7434 118.226,255.9034 118.226,256.0654 L118.226,258.1544 C118.226,258.3164 118.388,258.4774 118.548,258.4774 L126.534,258.4774 L126.534,258.7984 C126.534,259.1194 126.802,259.3344 127.07,259.3344 L134.895,259.3344 C135.163,259.3344 135.431,259.1194 135.431,258.7984 Z M132.43,262.6574 L132.43,261.7454 L127.07,261.7454 C126.266,261.7454 125.515,261.3704 124.98,260.8354 L121.389,260.8354 L121.389,264.3724 L130.714,264.3724 C131.625,264.3724 132.43,263.5694 132.43,262.6574 Z M121.389,249.8484 L121.389,253.3854 L124.98,253.3854 C125.515,252.7954 126.266,252.4744 127.07,252.4744 L132.43,252.4744 L132.43,251.5634 C132.43,250.5984 131.625,249.8484 130.714,249.8484 L121.389,249.8484 Z M12.488,160.7194 L12.488,152.9474 C12.488,152.6264 12.22,152.4114 11.952,152.4114 L8.521,152.4114 C8.2,152.4114 7.985,152.6264 7.985,152.9474 L7.985,160.7194 C7.985,161.0404 8.2,161.2554 8.521,161.2554 L8.843,161.2554 L8.843,169.2404 C8.843,169.4554 9.004,169.5624 9.164,169.5624 L11.255,169.5624 C11.469,169.5624 11.577,169.4554 11.577,169.2404 L11.577,161.2554 L11.952,161.2554 C12.22,161.2554 12.488,161.0404 12.488,160.7194 Z M6.485,166.4534 L6.485,162.8624 C5.949,162.3264 5.627,161.5764 5.627,160.7194 L5.627,155.4134 L4.716,155.4134 C3.751,155.4134 2.948,156.1634 2.948,157.1284 L2.948,166.4534 L6.485,166.4534 Z M13.934,162.8624 L13.934,166.4534 L17.472,166.4534 L17.472,157.1284 C17.472,156.1634 16.722,155.4134 15.757,155.4134 L14.846,155.4134 L14.846,160.7194 C14.846,161.5764 14.524,162.3264 13.934,162.8624 Z M91.0223,338.273 C91.0223,337.952 90.7543,337.737 90.4863,337.737 L90.1113,337.737 L90.1113,329.752 C90.1113,329.537 90.0043,329.43 89.7903,329.43 L87.6993,329.43 C87.5393,329.43 87.3783,329.537 87.3783,329.752 L87.3783,337.737 L87.0563,337.737 C86.7343,337.737 86.5203,337.952 86.5203,338.273 L86.5203,346.044 C86.5203,346.366 86.7343,346.581 87.0563,346.581 L90.4863,346.581 C90.7543,346.581 91.0223,346.366 91.0223,346.044 L91.0223,338.273 Z M85.0203,332.539 L81.4823,332.539 L81.4823,341.864 C81.4823,342.829 82.2863,343.579 83.2513,343.579 L84.1623,343.579 L84.1623,338.273 C84.1623,337.416 84.4833,336.666 85.0203,336.129 L85.0203,332.539 Z M92.4693,336.129 C93.0593,336.666 93.3803,337.416 93.3803,338.273 L93.3803,343.579 L94.2923,343.579 C95.2563,343.579 96.0073,342.829 96.0073,341.864 L96.0073,332.539 L92.4693,332.539 L92.4693,336.129 Z M91.0223,160.719 L91.0223,152.948 C91.0223,152.626 90.7543,152.412 90.4863,152.412 L87.0563,152.412 C86.7343,152.412 86.5203,152.626 86.5203,152.948 L86.5203,160.719 C86.5203,161.041 86.7343,161.255 87.0563,161.255 L87.3783,161.255 L87.3783,169.241 C87.3783,169.456 87.5393,169.562 87.6993,169.562 L89.7903,169.562 C90.0043,169.562 90.1113,169.456 90.1113,169.241 L90.1113,161.255 L90.4863,161.255 C90.7543,161.255 91.0223,161.041 91.0223,160.719 Z M85.0203,166.454 L85.0203,162.863 C84.4833,162.327 84.1623,161.577 84.1623,160.719 L84.1623,155.413 L83.2513,155.413 C82.2863,155.413 81.4823,156.164 81.4823,157.128 L81.4823,166.454 L85.0203,166.454 Z M92.4693,162.863 L92.4693,166.454 L96.0073,166.454 L96.0073,157.128 C96.0073,156.164 95.2563,155.413 94.2923,155.413 L93.3803,155.413 L93.3803,160.719 C93.3803,161.577 93.0593,162.327 92.4693,162.863 Z M164.2767,280.1314 L164.2767,272.3604 C164.2767,272.0374 164.0087,271.7704 163.7407,271.7704 L160.3107,271.7704 C159.9887,271.7704 159.7747,272.0374 159.7747,272.3604 L159.7747,280.1314 C159.7747,280.3994 159.9887,280.6664 160.3107,280.6664 L160.6317,280.6664 L160.6317,288.6524 C160.6317,288.8134 160.7927,288.9744 160.9537,288.9744 L163.0437,288.9744 C163.2577,288.9744 163.3657,288.8134 163.3657,288.6524 L163.3657,280.6664 L163.7407,280.6664 C164.0087,280.6664 164.2767,280.3994 164.2767,280.1314 Z M158.2737,285.8124 L158.2737,282.2214 C157.7377,281.6854 157.4167,280.9354 157.4167,280.1314 L157.4167,274.7714 L156.5057,274.7714 C155.5407,274.7714 154.7367,275.5754 154.7367,276.4864 L154.7367,285.8124 L158.2737,285.8124 Z M165.7767,282.2214 L165.7767,285.8124 L169.2607,285.8124 L169.2607,276.4864 C169.2607,275.5754 168.5107,274.7714 167.5457,274.7714 L166.6347,274.7714 L166.6347,280.1314 C166.6347,280.9354 166.3137,281.6854 165.7767,282.2214 Z M164.2767,241.8594 L164.2767,234.0874 C164.2767,233.8184 164.0087,233.5514 163.7407,233.5514 L163.3657,233.5514 L163.3657,225.5664 C163.3657,225.4044 163.2577,225.2434 163.0437,225.2434 L160.9537,225.2434 C160.7927,225.2434 160.6317,225.4044 160.6317,225.5664 L160.6317,233.5514 L160.3107,233.5514 C159.9887,233.5514 159.7747,233.8184 159.7747,234.0874 L159.7747,241.8594 C159.7747,242.1804 159.9887,242.4474 160.3107,242.4474 L163.7407,242.4474 C164.0087,242.4474 164.2767,242.1804 164.2767,241.8594 Z M165.7767,228.4054 L165.7767,231.9964 C166.3137,232.5324 166.6347,233.2834 166.6347,234.0874 L166.6347,239.4464 L167.5457,239.4464 C168.5107,239.4464 169.2607,238.6434 169.2607,237.7324 L169.2607,228.4054 L165.7767,228.4054 Z M158.2737,231.9964 L158.2737,228.4054 L154.7367,228.4054 L154.7367,237.7324 C154.7367,238.6434 155.5407,239.4464 156.5057,239.4464 L157.4167,239.4464 L157.4167,234.0874 C157.4167,233.2834 157.7377,232.5324 158.2737,231.9964 Z M247.4877,157.2354 C263.9947,157.2354 277.5007,170.7414 277.5007,187.3024 L277.5007,311.6904 C277.5007,328.2504 263.9947,341.7564 247.4877,341.7564 L189.0377,341.7564 C172.5297,341.7564 159.0247,328.2504 159.0247,311.6904 L159.0247,299.9074 L156.5057,299.9074 C153.8797,299.9074 151.7887,297.8174 151.7887,295.1914 L151.7887,276.4864 C151.7887,273.9134 153.8797,271.7704 156.5057,271.7704 L157.4697,271.7704 C157.6847,270.4304 158.8637,269.4114 160.3107,269.4114 L163.7407,269.4114 C165.1337,269.4114 166.3137,270.4304 166.5817,271.7704 L167.5457,271.7704 C170.1727,271.7704 172.2627,273.9134 172.2627,276.4864 L172.2627,295.1914 C172.2627,297.8174 170.1727,299.9074 167.5457,299.9074 L165.0267,299.9074 L165.0267,311.6904 C165.0267,324.9274 175.8537,335.7544 189.0377,335.7544 L247.4877,335.7544 C260.6717,335.7544 271.4977,324.9274 271.4977,311.6904 L271.4977,187.3024 C271.4977,174.0644 260.6717,163.2374 247.4877,163.2374 L189.0377,163.2374 C175.8537,163.2374 165.0267,174.0644 165.0267,187.3024 L165.0267,214.3104 L167.5457,214.3104 C170.1727,214.3104 172.2627,216.4014 172.2627,219.0274 L172.2627,237.7324 C172.2627,240.3044 170.1727,242.4474 167.5457,242.4474 L166.5817,242.4474 C166.3137,243.7874 165.1337,244.8064 163.7407,244.8064 L160.3107,244.8064 C158.8637,244.8064 157.6847,243.7874 157.4697,242.4474 L156.5057,242.4474 C153.8797,242.4474 151.7887,240.3044 151.7887,237.7324 L151.7887,219.0274 C151.7887,216.4014 153.8797,214.3104 156.5057,214.3104 L159.0247,214.3104 L159.0247,187.3024 C159.0247,170.7414 172.5297,157.2354 189.0377,157.2354 L247.4877,157.2354 Z M426.9847,258.7984 L426.9847,255.3684 C426.9847,255.1004 426.7167,254.8324 426.4497,254.8324 L418.6247,254.8324 C418.3557,254.8324 418.0887,255.1004 418.0887,255.3684 L418.0887,255.7434 L410.1027,255.7434 C409.9417,255.7434 409.7807,255.9034 409.7807,256.0654 L409.7807,258.1544 C409.7807,258.3164 409.9417,258.4774 410.1027,258.4774 L418.0887,258.4774 L418.0887,258.7984 C418.0887,259.1194 418.3557,259.3344 418.6247,259.3344 L426.4497,259.3344 C426.7167,259.3344 426.9847,259.1194 426.9847,258.7984 Z M423.9837,262.6574 L423.9837,261.7454 L418.6247,261.7454 C417.8207,261.7454 417.0697,261.3704 416.5337,260.8354 L412.9427,260.8354 L412.9427,264.3724 L422.2687,264.3724 C423.1797,264.3724 423.9837,263.5694 423.9837,262.6574 Z M412.9427,249.8484 L412.9427,253.3854 L416.5337,253.3854 C417.0697,252.7954 417.8207,252.4744 418.6247,252.4744 L423.9837,252.4744 L423.9837,251.5634 C423.9837,250.5984 423.1797,249.8484 422.2687,249.8484 L412.9427,249.8484 Z M304.0417,160.7194 L304.0417,152.9474 C304.0417,152.6264 303.7737,152.4114 303.5057,152.4114 L300.0757,152.4114 C299.7547,152.4114 299.5397,152.6264 299.5397,152.9474 L299.5397,160.7194 C299.5397,161.0404 299.7547,161.2554 300.0757,161.2554 L300.3977,161.2554 L300.3977,169.2404 C300.3977,169.4554 300.5577,169.5624 300.7187,169.5624 L302.8087,169.5624 C303.0237,169.5624 303.1307,169.4554 303.1307,169.2404 L303.1307,161.2554 L303.5057,161.2554 C303.7737,161.2554 304.0417,161.0404 304.0417,160.7194 Z M298.0387,166.4534 L298.0387,162.8624 C297.5037,162.3264 297.1817,161.5764 297.1817,160.7194 L297.1817,155.4134 L296.2707,155.4134 C295.3057,155.4134 294.5017,156.1634 294.5017,157.1284 L294.5017,166.4534 L298.0387,166.4534 Z M305.4887,162.8624 L305.4887,166.4534 L309.0267,166.4534 L309.0267,157.1284 C309.0267,156.1634 308.2757,155.4134 307.3107,155.4134 L306.3997,155.4134 L306.3997,160.7194 C306.3997,161.5764 306.0787,162.3264 305.4887,162.8624 Z M382.577,338.273 C382.577,337.952 382.309,337.737 382.041,337.737 L381.666,337.737 L381.666,329.752 C381.666,329.537 381.558,329.43 381.344,329.43 L379.254,329.43 C379.093,329.43 378.932,329.537 378.932,329.752 L378.932,337.737 L378.611,337.737 C378.289,337.737 378.075,337.952 378.075,338.273 L378.075,346.044 C378.075,346.366 378.289,346.581 378.611,346.581 L382.041,346.581 C382.309,346.581 382.577,346.366 382.577,346.044 L382.577,338.273 Z M376.574,332.539 L373.037,332.539 L373.037,341.864 C373.037,342.829 373.841,343.579 374.806,343.579 L375.717,343.579 L375.717,338.273 C375.717,337.416 376.038,336.666 376.574,336.129 L376.574,332.539 Z M384.024,336.129 C384.614,336.666 384.935,337.416 384.935,338.273 L384.935,343.579 L385.846,343.579 C386.811,343.579 387.561,342.829 387.561,341.864 L387.561,332.539 L384.024,332.539 L384.024,336.129 Z M382.577,160.719 L382.577,152.948 C382.577,152.626 382.309,152.412 382.041,152.412 L378.611,152.412 C378.289,152.412 378.075,152.626 378.075,152.948 L378.075,160.719 C378.075,161.041 378.289,161.255 378.611,161.255 L378.932,161.255 L378.932,169.241 C378.932,169.456 379.093,169.562 379.254,169.562 L381.344,169.562 C381.558,169.562 381.666,169.456 381.666,169.241 L381.666,161.255 L382.041,161.255 C382.309,161.255 382.577,161.041 382.577,160.719 Z M376.574,166.454 L376.574,162.863 C376.038,162.327 375.717,161.577 375.717,160.719 L375.717,155.413 L374.806,155.413 C373.841,155.413 373.037,156.164 373.037,157.128 L373.037,166.454 L376.574,166.454 Z M384.024,162.863 L384.024,166.454 L387.561,166.454 L387.561,157.128 C387.561,156.164 386.811,155.413 385.846,155.413 L384.935,155.413 L384.935,160.719 C384.935,161.577 384.614,162.327 384.024,162.863 Z" id="Combined-Shape"></path>
                </g>
            </g>
        </g>
    </g>
</svg>