<?xml version="1.0" encoding="UTF-8"?>
<svg width="122px" height="24px" viewBox="0 0 122 24" version="1.1" xmlns="http://www.w3.org/2000/svg" xmlns:xlink="http://www.w3.org/1999/xlink">
    <!-- Generator: Sketch 55 (78076) - https://sketchapp.com -->
    <title>logo-unicom-dark</title>
    <desc>Created with Sketch.</desc>
    <g id="Page-1" stroke="none" stroke-width="1" fill="none" fill-rule="evenodd">
        <g id="404" transform="translate(-595.000000, -970.000000)" fill="#FFFFFF">
            <g id="Footer" transform="translate(510.000000, 931.000000)">
                <g id="Logos" transform="translate(85.000000, 39.000000)">
                    <g id="logo-unicom-dark">
                        <path d="M120.753796,17.5626588 C121.108326,17.6134824 121.28559,17.6730118 121.28559,17.7405412 C121.28559,17.7913647 121.24315,17.8421882 121.158973,17.8930118 L120.120708,18.5791294 C119.901003,18.7316 119.655974,18.8078353 119.386326,18.8078353 L114.549532,18.8078353 C114.346943,18.8078353 114.245649,18.7233647 114.245649,18.5537176 L114.245649,18.4774824 L116.170237,11.2097176 L116.170237,11.1334824 C116.170237,10.9810118 116.068943,10.9047765 115.867058,10.9047765 C115.192937,10.9047765 114.822463,11.0068941 114.755168,11.2104235 L112.830345,18.4784235 C112.779698,18.6981882 112.619081,18.8078353 112.348729,18.8078353 L107.534914,18.8078353 C107.315209,18.8078353 107.205708,18.7247765 107.205708,18.5579529 C107.205708,18.5414824 107.212508,18.5163059 107.226342,18.4831294 L109.151399,11.2151294 C109.151399,11.1981882 109.152337,11.1723059 109.15562,11.1374824 C109.15562,10.9826588 109.045416,10.9047765 108.826414,10.9047765 C108.150885,10.9047765 107.788149,11.0064235 107.737502,11.2097176 L105.812914,18.4774824 C105.74515,18.6979529 105.585002,18.8078353 105.331767,18.8078353 L100.494973,18.8078353 C100.275268,18.8078353 100.165767,18.7233647 100.165767,18.5537176 L100.165767,18.4774824 L102.090355,11.2097176 C102.107003,11.1758353 102.115679,11.1334824 102.115679,11.0826588 C102.115679,10.8793647 101.967724,10.6421882 101.672517,10.3711294 C101.376841,10.1003059 101.229121,9.93912941 101.229121,9.88830588 C101.229121,9.8036 101.313767,9.76124706 101.48259,9.76124706 L119.361002,9.76124706 C120.019414,9.76124706 120.563635,9.93065882 120.99437,10.2694824 C121.42487,10.6085412 121.64012,11.0405412 121.64012,11.5654824 C121.64012,11.7179529 121.623003,11.8704235 121.589238,12.0228941 L120.221768,17.1306588 L120.221768,17.2068941 C120.221768,17.3934824 120.399267,17.5118353 120.753796,17.5626588 Z M91.9802173,17.6643294 C92.2496315,17.6643294 92.4095449,17.5622118 92.460192,17.3572706 L94.1073938,11.2080941 C94.1073938,11.1913882 94.1095041,11.1659765 94.1139592,11.1323294 C94.1139592,10.9805647 94.0037549,10.9048 93.7845188,10.9048 L91.7588709,10.9048 C91.5056356,10.9048 91.3447843,11.0064471 91.2774894,11.2097412 L89.6567835,17.3593882 L89.6567835,17.4356235 C89.6567835,17.5880941 89.7660498,17.6643294 89.9852859,17.6643294 L91.9802173,17.6643294 Z M98.937857,10.2695059 C99.368357,10.6085647 99.5838415,11.0405647 99.5838415,11.5655059 C99.5838415,11.7179765 99.5582835,11.8704471 99.5078709,12.0229176 L98.3174306,16.5462118 C98.148607,17.1732706 97.7349894,17.7069176 97.0765776,18.1471529 C96.4184003,18.5878588 95.6922247,18.8078588 94.8987541,18.8078588 L86.4660188,18.8078588 C85.807607,18.8078588 85.2633856,18.6426824 84.8328856,18.3123294 C84.4023856,17.9819765 84.1871356,17.5542118 84.1871356,17.0290353 C84.1871356,16.8598588 84.2122247,16.6986824 84.2628717,16.5462118 L85.4530776,12.0229176 C85.6052533,11.4130353 86.0141814,10.8838588 86.6812688,10.4346824 C87.3481217,9.98597647 88.0696078,9.76127059 88.846665,9.76127059 L97.3044894,9.76127059 C97.9631356,9.76127059 98.507357,9.93068235 98.937857,10.2695059 Z M76.8438279,17.3594118 L77.273859,15.7330588 C77.3411539,15.5297647 77.5020052,15.4281176 77.755006,15.4281176 L82.5920346,15.4281176 C82.8110363,15.4281176 82.921006,15.5043529 82.921006,15.6568235 C82.921006,15.6909412 82.8450355,15.9871765 82.6930943,16.5462353 C82.5242708,17.1730588 82.1106531,17.7069412 81.4522413,18.1471765 C80.7940641,18.5878824 80.0678884,18.8078824 79.2744178,18.8078824 L70.8416825,18.8078824 C70.1830363,18.8078824 69.6388149,18.6427059 69.2083149,18.3123529 C68.7778149,17.982 68.5625649,17.5542353 68.5625649,17.0290588 C68.5625649,16.8598824 68.5878884,16.6987059 68.638301,16.5462353 L69.8287413,12.0229412 C69.9806825,11.4130588 70.3896106,10.8838824 71.0569325,10.4347059 C71.7237855,9.986 72.4452716,9.76129412 73.2223288,9.76129412 L81.6801531,9.76129412 C82.3387993,9.76129412 82.8830208,9.93070588 83.3135208,10.2695294 C83.7440208,10.6085882 83.9595052,11.0405882 83.9595052,11.5655294 C83.9595052,11.718 83.9339472,11.8704706 83.8833002,12.0229412 L83.6807119,12.8361176 C83.6300649,13.0563529 83.469448,13.1664706 83.1995649,13.1664706 L78.3630052,13.1664706 C78.1433002,13.1664706 78.0335649,13.0817647 78.0335649,12.9123529 C78.0335649,12.726 78.1095355,12.4295294 78.2614766,12.0229412 C78.4134178,11.6163529 78.4896229,11.3201176 78.4896229,11.1335294 C78.4896229,10.9810588 78.3803565,10.9048235 78.1618239,10.9048235 L76.1453206,10.9048235 C75.8932577,10.9048235 75.7340477,11.0076471 75.6665183,11.2132941 L74.0392471,17.3612941 C74.0392471,17.3784706 74.0366678,17.4038824 74.0324472,17.4372941 C74.0324472,17.5888235 74.1421825,17.6643529 74.3616531,17.6643529 L76.3626809,17.6643529 C76.6325641,17.6643529 76.7931809,17.5627059 76.8438279,17.3594118 Z M64.1942092,8.14755294 C63.7637092,7.8172 63.5484592,7.38967059 63.5484592,6.86425882 C63.5484592,6.15272941 63.9069747,5.51743529 64.6247092,4.95837647 C65.3422092,4.39931765 66.1396658,4.11978824 67.0177827,4.11978824 C67.67596,4.11978824 68.2204158,4.28943529 68.6509158,4.62802353 C69.0814158,4.96708235 69.2966658,5.39908235 69.2966658,5.92402353 C69.2966658,6.61884706 68.9423709,7.24543529 68.2333121,7.80449412 C67.5244877,8.36355294 66.722107,8.64308235 65.8275768,8.64308235 C65.169165,8.64308235 64.6247092,8.47790588 64.1942092,8.14755294 Z M60.4083415,18.4774353 L62.3329297,11.2096706 C62.3495776,11.1760235 62.3582533,11.1334353 62.3582533,11.0826118 C62.3582533,10.8793176 62.2102982,10.6423765 61.9150915,10.3710824 C61.6196503,10.1002588 61.4719297,9.93908235 61.4719297,9.88825882 C61.4719297,9.80378824 61.5479003,9.7612 61.6998415,9.7612 L67.9549877,9.7612 C68.1573415,9.7612 68.2584011,9.84614118 68.2584011,10.0153176 L68.2584011,10.0915529 L66.3846944,17.1306118 L66.3846944,17.2068471 C66.3846944,17.3934353 66.5619592,17.5117882 66.9164886,17.5626118 C67.2712525,17.6134353 67.4482827,17.6729647 67.4482827,17.7404941 C67.4482827,17.7913176 67.4058423,17.8421412 67.3214306,17.8929647 L66.2834003,18.5790824 C66.0636953,18.7315529 65.8275768,18.8077882 65.5743415,18.8077882 L60.7122239,18.8077882 C60.5096356,18.8077882 60.4083415,18.7233176 60.4083415,18.5536706 L60.4083415,18.4774353 Z M58.8892815,17.5626588 C59.2438109,17.6134824 59.4210756,17.6730118 59.4210756,17.7405412 C59.4210756,17.7913647 59.3786352,17.8421882 59.2944579,17.8930118 L58.2561932,18.5791294 C58.0364882,18.7316 57.791694,18.8078353 57.5218109,18.8078353 L52.6850167,18.8078353 C52.4655462,18.8078353 52.3558109,18.7233647 52.3558109,18.5537176 C52.3558109,18.5370118 52.3640176,18.5116 52.3811344,18.4774824 L54.3057226,11.2097176 L54.3057226,11.1334824 C54.3057226,10.9810118 54.1959873,10.9047765 53.9772202,10.9047765 L51.9815854,10.9047765 C51.7121712,10.9047765 51.5520233,11.0071294 51.5016107,11.2116 L49.5765535,18.4791294 C49.5090241,18.6981882 49.3481728,18.8078353 49.0949375,18.8078353 L44.2527504,18.8078353 C44.0325764,18.8078353 43.9230756,18.7233647 43.9230756,18.5537176 L43.9230756,18.4774824 L45.8476638,11.2097176 C45.8643117,11.1758353 45.8729873,11.1334824 45.8729873,11.0826588 C45.8729873,10.8793647 45.7250323,10.6421882 45.4298256,10.3711294 C45.1341499,10.1003059 44.9866638,9.93912941 44.9866638,9.88830588 C44.9866638,9.8036 45.0708411,9.76124706 45.2398991,9.76124706 L57.4964873,9.76124706 C58.1548991,9.76124706 58.699355,9.93065882 59.129855,10.2694824 C59.560355,10.6085412 59.775605,11.0405412 59.775605,11.5654824 C59.775605,11.7179529 59.7502815,11.8704235 59.6996344,12.0228941 L58.3574873,17.1306588 L58.3574873,17.2068941 C58.3574873,17.3934824 58.534752,17.5118353 58.8892815,17.5626588 Z M42.3024166,17.5626588 C42.656946,17.6134824 42.8342107,17.6730118 42.8342107,17.7405412 C42.8342107,17.7913647 42.7835636,17.8421882 42.6822695,17.8930118 L41.6693283,18.5791294 C41.4327409,18.7316 41.1881813,18.8078353 40.934946,18.8078353 L30.0711519,18.8078353 C29.4127401,18.8078353 28.8682842,18.6426588 28.4377842,18.3123059 C28.0072842,17.9819529 27.7920342,17.5541882 27.7920342,17.0290118 C27.7920342,16.8598353 27.8173578,16.6986588 27.8680048,16.5461882 L29.2607989,11.2097176 C29.2774468,11.1758353 29.2861225,11.1334824 29.2861225,11.0826588 C29.2861225,10.8793647 29.1379329,10.6421882 28.8429607,10.3711294 C28.547285,10.1003059 28.3997989,9.93912941 28.3997989,9.88830588 C28.3997989,9.8036 28.4757695,9.76124706 28.6277107,9.76124706 L34.8826225,9.76124706 C35.1018586,9.76124706 35.2118283,9.84618824 35.2118283,10.0153647 C35.2118283,10.0325412 35.2031527,10.0577176 35.1865048,10.0916 L33.2619166,17.3593647 L33.2619166,17.4356 C33.2619166,17.5880706 33.3711829,17.6643059 33.5901846,17.6643059 L35.5860538,17.6643059 C35.8552336,17.6643059 36.0153815,17.5624235 36.0660285,17.3572471 L37.9910857,10.0899529 C38.0583806,9.87089412 38.2189975,9.76124706 38.4727017,9.76124706 L43.3148888,9.76124706 C43.5345939,9.76124706 43.6445636,9.84618824 43.6445636,10.0153647 L43.6445636,10.0916 L41.7706225,17.1306588 L41.7706225,17.2068941 C41.7706225,17.3934824 41.9478872,17.5118353 42.3024166,17.5626588 Z" id="Combined-Shape"></path>
                        <path d="M20.6926297,11.1681176 L23.712695,14.1987059 C22.683106,19.7756471 17.813954,24.0001176 11.9583568,24.0001176 C5.35383962,24.0001176 2.34477124e-05,18.6274118 2.34477124e-05,12.0001176 C2.34477124e-05,11.7591765 0.00916805556,11.5208235 0.0230022059,11.2834118 L3.22408391,14.4956471 L5.62958472,12.0817647 C5.67343194,15.5525882 8.48926773,18.3530588 11.9583568,18.3530588 C14.81124,18.3530588 17.2226027,16.4589412 18.013963,13.8561176 L20.6926297,11.1681176 Z M7.97222222,12.0002353 C7.97222222,9.79082353 9.75682761,8.00023529 11.9583333,8.00023529 C14.1598391,8.00023529 15.9444444,9.79082353 15.9444444,12.0002353 C15.9444444,14.2091765 14.1598391,16 11.9583333,16 C9.75682761,16 7.97222222,14.2091765 7.97222222,12.0002353 Z M11.9583568,4.70588235e-05 C18.5628739,4.70588235e-05 23.9166901,5.37251765 23.9166901,12.0000471 C23.9166901,12.2407529 23.9075455,12.4793412 23.8934769,12.7165176 L20.6926297,9.50428235 L18.2871288,11.9181647 C18.2432816,8.44734118 15.4274458,5.64710588 11.9583568,5.64710588 C9.10547361,5.64710588 6.69411087,7.54098824 5.90275057,10.1438118 L3.22408391,12.8318118 L0.203784069,9.80122353 C1.2336076,4.22451765 6.10275956,4.70588235e-05 11.9583568,4.70588235e-05 Z" id="Combined-Shape"></path>
                    </g>
                </g>
            </g>
        </g>
    </g>
</svg>