<?xml version="1.0" encoding="UTF-8"?>
<svg width="122px" height="24px" viewBox="0 0 122 24" version="1.1" xmlns="http://www.w3.org/2000/svg" xmlns:xlink="http://www.w3.org/1999/xlink">
    <!-- Generator: Sketch 55 (78076) - https://sketchapp.com -->
    <title>logo-unicom-light</title>
    <desc>Created with Sketch.</desc>
    <defs>
        <radialGradient cx="103.332123%" cy="5.20007378%" fx="103.332123%" fy="5.20007378%" r="121.961922%" gradientTransform="translate(1.033321,0.052001),scale(0.530132,1.000000),rotate(180.000000),translate(-1.033321,-0.052001)" id="radialGradient-1">
            <stop stop-color="#FEFEFE" offset="0%"></stop>
            <stop stop-color="#C0272D" offset="100%"></stop>
        </radialGradient>
        <radialGradient cx="50%" cy="25.7891681%" fx="50%" fy="25.7891681%" r="74.2934591%" gradientTransform="translate(0.500000,0.257892),scale(1.000000,0.998888),rotate(90.000000),translate(-0.500000,-0.257892)" id="radialGradient-2">
            <stop stop-color="#44ADE2" offset="0%"></stop>
            <stop stop-color="#005B8E" offset="100%"></stop>
        </radialGradient>
        <radialGradient cx="-6.77809443%" cy="94.627724%" fx="-6.77809443%" fy="94.627724%" r="127.849312%" gradientTransform="translate(-0.067781,0.946277),scale(0.530127,1.000000),translate(0.067781,-0.946277)" id="radialGradient-3">
            <stop stop-color="#FEFEFE" offset="0%"></stop>
            <stop stop-color="#CBCED0" offset="100%"></stop>
        </radialGradient>
    </defs>
    <g id="Page-1" stroke="none" stroke-width="1" fill="none" fill-rule="evenodd">
        <g id="Login-A" transform="translate(-887.000000, -970.000000)">
            <g id="Footer" transform="translate(802.000000, 931.000000)">
                <g id="Logos" transform="translate(85.000000, 39.000000)">
                    <g id="logo-unicom-light">
                        <path d="M121.036214,17.5626588 C121.391573,17.6134824 121.569252,17.6730118 121.569252,17.7405412 C121.569252,17.7913647 121.526712,17.8421882 121.442338,17.8930118 L120.401645,18.5791294 C120.181426,18.7316 119.935825,18.8078353 119.665545,18.8078353 L114.817439,18.8078353 C114.614377,18.8078353 114.512846,18.7233647 114.512846,18.5537176 L114.512846,18.4774824 L116.441935,11.2097176 L116.441935,11.1334824 C116.441935,10.9810118 116.340404,10.9047765 116.138047,10.9047765 C115.462349,10.9047765 115.091009,11.0068941 115.023556,11.2104235 L113.094232,18.4784235 C113.043466,18.6981882 112.882474,18.8078353 112.611489,18.8078353 L107.786416,18.8078353 C107.566197,18.8078353 107.45644,18.7247765 107.45644,18.5579529 C107.45644,18.5414824 107.463255,18.5163059 107.477122,18.4831294 L109.406681,11.2151294 C109.406681,11.1981882 109.407622,11.1723059 109.410912,11.1374824 C109.410912,10.9826588 109.30045,10.9047765 109.080936,10.9047765 C108.403828,10.9047765 108.040243,11.0064235 107.989478,11.2097176 L106.060388,18.4774824 C105.992466,18.6979529 105.831943,18.8078353 105.578116,18.8078353 L100.730009,18.8078353 C100.50979,18.8078353 100.400034,18.7233647 100.400034,18.5537176 L100.400034,18.4774824 L102.329123,11.2097176 C102.34581,11.1758353 102.354506,11.1334824 102.354506,11.0826588 C102.354506,10.8793647 102.206205,10.6421882 101.910308,10.3711294 C101.61394,10.1003059 101.465874,9.93912941 101.465874,9.88830588 C101.465874,9.8036 101.550719,9.76124706 101.719937,9.76124706 L119.640163,9.76124706 C120.300114,9.76124706 120.845608,9.93065882 121.27735,10.2694824 C121.708857,10.6085412 121.924611,11.0405412 121.924611,11.5654824 C121.924611,11.7179529 121.907454,11.8704235 121.87361,12.0228941 L120.502941,17.1306588 L120.502941,17.2068941 C120.502941,17.3934824 120.680855,17.5118353 121.036214,17.5626588 Z M92.1953398,17.6643294 C92.4653841,17.6643294 92.6256715,17.5622118 92.676437,17.3572706 L94.3274913,11.2080941 C94.3274913,11.1913882 94.3296065,11.1659765 94.334072,11.1323294 C94.334072,10.9805647 94.22361,10.9048 94.0038611,10.9048 L91.9734757,10.9048 C91.7196481,10.9048 91.5584206,11.0064471 91.4909683,11.2097412 L89.8664719,17.3593882 L89.8664719,17.4356235 C89.8664719,17.5880941 89.9759938,17.6643294 90.1957427,17.6643294 L92.1953398,17.6643294 Z M99.1692519,10.2695059 C99.6007588,10.6085647 99.8167472,11.0405647 99.8167472,11.5655059 C99.8167472,11.7179765 99.7911295,11.8704471 99.740599,12.0229176 L98.5473744,16.5462118 C98.3781561,17.1732706 97.963571,17.7069176 97.3036194,18.1471529 C96.6439028,18.5878588 95.9160287,18.8078588 95.1207024,18.8078588 L86.6682447,18.8078588 C86.008293,18.8078588 85.4627988,18.6426824 85.031292,18.3123294 C84.5997851,17.9819765 84.3840317,17.5542118 84.3840317,17.0290353 C84.3840317,16.8598588 84.4091794,16.6986824 84.4599449,16.5462118 L85.6529345,12.0229176 C85.805466,11.4130353 86.2153505,10.8838588 86.8839981,10.4346824 C87.5524107,9.98597647 88.2755842,9.76127059 89.0544588,9.76127059 L97.5320642,9.76127059 C98.1922509,9.76127059 98.7377451,9.93068235 99.1692519,10.2695059 Z M77.0235496,17.3594118 L77.4545864,15.7330588 C77.5220387,15.5297647 77.6832662,15.4281176 77.9368587,15.4281176 L82.7852001,15.4281176 C83.0047139,15.4281176 83.1149409,15.5043529 83.1149409,15.6568235 C83.1149409,15.6909412 83.0387926,15.9871765 82.8864961,16.5462353 C82.7172777,17.1730588 82.3026927,17.7069412 81.6427411,18.1471765 C80.9830244,18.5878824 80.2551504,18.8078824 79.4598241,18.8078824 L71.0073664,18.8078824 C70.3471797,18.8078824 69.8016855,18.6427059 69.3701786,18.3123529 C68.9386718,17.982 68.7229183,17.5542353 68.7229183,17.0290588 C68.7229183,16.8598824 68.7483011,16.6987059 68.7988316,16.5462353 L69.9920561,12.0229412 C70.1443527,11.4130588 70.5542372,10.8838824 71.2231198,10.4347059 C71.8915324,9.986 72.6147059,9.76129412 73.3935804,9.76129412 L81.8711859,9.76129412 C82.5313725,9.76129412 83.0768668,9.93070588 83.5083736,10.2695294 C83.9398805,10.6085882 84.1558689,11.0405882 84.1558689,11.5655294 C84.1558689,11.718 84.1302511,11.8704706 84.0794856,12.0229412 L83.8764236,12.8361176 C83.8256581,13.0563529 83.6646656,13.1664706 83.3941512,13.1664706 L78.5462799,13.1664706 C78.326061,13.1664706 78.216069,13.0817647 78.216069,12.9123529 C78.216069,12.726 78.2922173,12.4295294 78.4445138,12.0229412 C78.5968104,11.6163529 78.6731937,11.3201176 78.6731937,11.1335294 C78.6731937,10.9810588 78.5636718,10.9048235 78.344628,10.9048235 L76.3234085,10.9048235 C76.0707561,10.9048235 75.9111738,11.0076471 75.8434864,11.2132941 L74.2124093,17.3612941 C74.2124093,17.3784706 74.2098241,17.4038824 74.2055936,17.4372941 C74.2055936,17.5888235 74.3155855,17.6643529 74.5355694,17.6643529 L76.5412772,17.6643529 C76.8117916,17.6643529 76.972784,17.5627059 77.0235496,17.3594118 Z M64.344346,8.14755294 C63.9128391,7.8172 63.6970857,7.38967059 63.6970857,6.86425882 C63.6970857,6.15272941 64.0564397,5.51743529 64.7758528,4.95837647 C65.4950309,4.39931765 66.2943527,4.11978824 67.1745232,4.11978824 C67.8342399,4.11978824 68.3799691,4.28943529 68.811476,4.62802353 C69.2429828,4.96708235 69.4587362,5.39908235 69.4587362,5.92402353 C69.4587362,6.61884706 69.1036127,7.24543529 68.3928955,7.80449412 C67.6824134,8.36355294 66.8781561,8.64308235 65.9815337,8.64308235 C65.3215821,8.64308235 64.7758528,8.47790588 64.344346,8.14755294 Z M60.549624,18.4774353 L62.4787134,11.2096706 C62.4954002,11.1760235 62.5040962,11.1334353 62.5040962,11.0826118 C62.5040962,10.8793176 62.3557951,10.6423765 62.0598979,10.3710824 C61.7637658,10.1002588 61.6156997,9.93908235 61.6156997,9.88825882 C61.6156997,9.80378824 61.691848,9.7612 61.8441445,9.7612 L68.1139202,9.7612 C68.3167472,9.7612 68.4180432,9.84614118 68.4180432,10.0153176 L68.4180432,10.0915529 L66.5399543,17.1306118 L66.5399543,17.2068471 C66.5399543,17.3934353 66.7176336,17.5117882 67.0729922,17.5626118 C67.4285858,17.6134353 67.6060301,17.6729647 67.6060301,17.7404941 C67.6060301,17.7913176 67.5634905,17.8421412 67.4788813,17.8929647 L66.4384233,18.5790824 C66.2182044,18.7315529 65.9815337,18.8077882 65.7277062,18.8077882 L60.854217,18.8077882 C60.651155,18.8077882 60.549624,18.7233176 60.549624,18.5536706 L60.549624,18.4774353 Z M59.0270111,17.5626588 C59.3823697,17.6134824 59.560049,17.6730118 59.560049,17.7405412 C59.560049,17.7913647 59.5175094,17.8421882 59.4331352,17.8930118 L58.3924423,18.5791294 C58.1722233,18.7316 57.9268567,18.8078353 57.6563423,18.8078353 L52.808236,18.8078353 C52.5882521,18.8078353 52.4782601,18.7233647 52.4782601,18.5537176 C52.4782601,18.5370118 52.486486,18.5116 52.5036429,18.4774824 L54.4327323,11.2097176 L54.4327323,11.1334824 C54.4327323,10.9810118 54.3227404,10.9047765 54.1034616,10.9047765 L52.1031594,10.9047765 C51.8331151,10.9047765 51.6725927,11.0071294 51.6220622,11.2116 L49.6925027,18.4791294 C49.6248153,18.6981882 49.4635878,18.8078353 49.2097603,18.8078353 L44.3562483,18.8078353 C44.1355594,18.8078353 44.0258024,18.7233647 44.0258024,18.5537176 L44.0258024,18.4774824 L45.9548919,11.2097176 C45.9715787,11.1758353 45.9802746,11.1334824 45.9802746,11.0826588 C45.9802746,10.8793647 45.8319735,10.6421882 45.5360764,10.3711294 C45.2397092,10.1003059 45.0918782,9.93912941 45.0918782,9.88830588 C45.0918782,9.8036 45.1762524,9.76124706 45.3457057,9.76124706 L57.6309596,9.76124706 C58.2909112,9.76124706 58.8366405,9.93065882 59.2681473,10.2694824 C59.6996542,10.6085412 59.9154076,11.0405412 59.9154076,11.5654824 C59.9154076,11.7179529 59.8900248,11.8704235 59.8392593,12.0228941 L58.4939733,17.1306588 L58.4939733,17.2068941 C58.4939733,17.3934824 58.6716526,17.5118353 59.0270111,17.5626588 Z M42.4013531,17.5626588 C42.7567117,17.6134824 42.9343909,17.6730118 42.9343909,17.7405412 C42.9343909,17.7913647 42.8836254,17.8421882 42.7820944,17.8930118 L41.7667842,18.5791294 C41.5296434,18.7316 41.2845118,18.8078353 41.0306843,18.8078353 L30.141482,18.8078353 C29.4815304,18.8078353 28.9358011,18.6426588 28.5042943,18.3123059 C28.0727874,17.9819529 27.857034,17.5541882 27.857034,17.0290118 C27.857034,16.8598353 27.8824167,16.6986588 27.9331822,16.5461882 L29.3292338,11.2097176 C29.3459206,11.1758353 29.3546166,11.1334824 29.3546166,11.0826588 C29.3546166,10.8793647 29.2060804,10.6421882 28.9104183,10.3711294 C28.6140512,10.1003059 28.4662201,9.93912941 28.4662201,9.88830588 C28.4662201,9.8036 28.5423684,9.76124706 28.6946649,9.76124706 L34.9642056,9.76124706 C35.1839545,9.76124706 35.2941814,9.84618824 35.2941814,10.0153647 C35.2941814,10.0325412 35.2854855,10.0577176 35.2687987,10.0916 L33.3397092,17.3593647 L33.3397092,17.4356 C33.3397092,17.5880706 33.4492311,17.6643059 33.668745,17.6643059 L35.6692822,17.6643059 C35.9390915,17.6643059 36.0996139,17.5624235 36.1503794,17.3572471 L38.0799389,10.0899529 C38.1473912,9.87089412 38.3083837,9.76124706 38.5626813,9.76124706 L43.4161933,9.76124706 C43.6364122,9.76124706 43.7466391,9.84618824 43.7466391,10.0153647 L43.7466391,10.0916 L41.8683152,17.1306588 L41.8683152,17.2068941 C41.8683152,17.3934824 42.0459945,17.5118353 42.4013531,17.5626588 Z" id="Combined-Shape" fill="#C0272D"></path>
                        <path d="M18.2114222,13.9498824 C17.3566344,16.6908235 14.8606634,18.5294118 11.9863014,18.5294118 L11.9863014,18.5294118 C8.57255573,18.5294118 5.73697287,15.8555294 5.48408541,12.4898824 L5.48408541,12.4898824 L3.23160086,14.7451765 L0.180969648,11.6910588 C0.177914316,11.7983529 0.176269138,11.9007059 0.176269138,12.0002353 L0.176269138,12.0002353 C0.176269138,18.5195294 5.47421434,23.8235294 11.9863014,23.8235294 L11.9863014,23.8235294 C17.6464209,23.8235294 22.5062785,19.8061176 23.5777599,14.2576471 L23.5777599,14.2576471 L20.7410019,11.4176471 L18.2114222,13.9498824 Z" id="Fill-22" fill="url(#radialGradient-1)"></path>
                        <path d="M20.7410254,11.1681176 L18.0560939,13.8561176 C17.2628828,16.4589412 14.8458803,18.3530588 11.9863249,18.3530588 C8.50912235,18.3530588 5.68670091,15.5525882 5.64275114,12.0817647 L3.23162436,14.4956471 L0.0230560032,11.2834118 C0.00918949772,11.5208235 2.35025517e-05,11.7591765 2.35025517e-05,12.0001176 C2.35025517e-05,18.6274118 5.36636113,24.0001176 11.9863249,24.0001176 C17.8556171,24.0001176 22.736157,19.7756471 23.768154,14.1987059 L20.7410254,11.1681176 Z M20.7410254,11.6671765 L23.3864726,14.3158824 C22.2957192,19.734 17.5305768,23.6471765 11.9863249,23.6471765 C5.60890747,23.6471765 0.413668413,18.4834118 0.353031829,12.1130588 L2.98226229,14.7452941 L3.23162436,14.9947059 L3.48098644,14.7452941 L5.34708904,12.8768235 C5.78024107,16.1554118 8.60759804,18.706 11.9863249,18.706 C14.9236738,18.706 17.476521,16.8363529 18.3665626,14.0443529 L20.7410254,11.6671765 L20.7410254,11.6671765 Z" id="Fill-25" fill="#C0272D"></path>
                        <path d="M7.99086758,12.0002353 C7.99086758,14.2091765 9.77964679,16 11.9863014,16 L11.9863014,16 C14.1929559,16 15.9817352,14.2091765 15.9817352,12.0002353 L15.9817352,12.0002353 C15.9817352,9.79082353 14.1929559,8.00023529 11.9863014,8.00023529 L11.9863014,8.00023529 C9.77964679,8.00023529 7.99086758,9.79082353 7.99086758,12.0002353" id="Fill-14" fill="url(#radialGradient-2)"></path>
                        <path d="M0.394607843,9.74235294 L3.23160086,12.5823529 L5.76094547,10.0498824 C6.61596831,7.30917647 9.11217432,5.47058824 11.9863014,5.47058824 L11.9863014,5.47058824 C15.400047,5.47058824 18.2358649,8.14447059 18.4882823,11.5098824 L18.4882823,11.5098824 L20.7410019,9.25482353 L23.7913981,12.3089412 C23.7949234,12.2016471 23.7963336,12.0990588 23.7963336,12.0002353 L23.7963336,12.0002353 C23.7963336,5.48047059 18.4983884,0.176470588 11.9863014,0.176470588 L11.9863014,0.176470588 C6.32618184,0.176470588 1.4663242,4.19388235 0.394607843,9.74235294" id="Fill-17" fill="url(#radialGradient-3)"></path>
                        <path d="M11.9863249,4.70588235e-05 C6.11703263,4.70588235e-05 1.23649275,4.22451765 0.204260677,9.80122353 L3.23162436,12.8318118 L5.91655587,10.1438118 C6.70976699,7.54098824 9.12676941,5.64710588 11.9863249,5.64710588 C15.4635274,5.64710588 18.2859488,8.44734118 18.3298986,11.9181647 L20.7410254,9.50428235 L23.9493587,12.7165176 C23.9634602,12.4793412 23.9726262,12.2407529 23.9726262,12.0000471 C23.9726262,5.37251765 18.6062886,4.70588235e-05 11.9863249,4.70588235e-05 M11.9863249,0.352988235 C18.3635073,0.352988235 23.5587463,5.51651765 23.6196179,11.8871059 L20.9903875,9.25487059 L20.7410254,9.00522353 L20.4916633,9.25487059 L18.6255607,11.1231059 C18.1924087,7.84451765 15.3650517,5.29416471 11.9863249,5.29416471 C9.04897596,5.29416471 6.49612879,7.16357647 5.60585214,9.95581176 L3.23162436,12.3327529 L0.585942117,9.68428235 C1.67693057,4.26592941 6.4418379,0.352988235 11.9863249,0.352988235" id="Fill-20" fill="#D0D2D3"></path>
                    </g>
                </g>
            </g>
        </g>
    </g>
</svg>