<?xml version="1.0" encoding="UTF-8"?>
<svg width="263px" height="176px" viewBox="0 0 263 176" version="1.1" xmlns="http://www.w3.org/2000/svg" xmlns:xlink="http://www.w3.org/1999/xlink">
    <!-- Generator: Sketch 55 (78076) - https://sketchapp.com -->
    <title>illustration-not-authorized</title>
    <desc>Created with Sketch.</desc>
    <g id="Page-1" stroke="none" stroke-width="1" fill="none" fill-rule="evenodd">
        <g id="Not-Authorized" transform="translate(-832.000000, -270.000000)" fill="#383838" fill-rule="nonzero">
            <g id="Content" transform="translate(345.000000, 270.000000)">
                <g id="illustration-not-authorized" transform="translate(487.000000, 0.000000)">
                    <path d="M155.133777,99.2774386 C154.594031,100.087239 154.075079,100.917836 153.576923,101.769231 C149.192286,109.230807 147,117.307649 147,126 C147,134.692351 149.192286,142.769193 153.576923,150.230769 C154.122042,151.17968 154.693655,152.102757 155.291762,153 L57,153 L57,134.137725 C57,126.502956 61.6406722,119.616797 70.9221557,113.479042 C78.7066257,108.239495 88.8861647,104.04792 101.461078,100.904192 C112.538978,98.2095674 122.718516,96.8622754 132,96.8622754 C139.174596,96.8622754 146.885809,97.6673236 155.133777,99.2774386 Z M132,78 C125.263439,78 119.050927,76.3158851 113.362275,72.9476048 C107.673624,69.5793245 103.145226,65.0509266 99.7769461,59.3622754 C96.4086658,53.6736243 94.7245509,47.4611115 94.7245509,40.7245509 C94.7245509,33.9879903 96.4086658,27.700628 99.7769461,21.8622754 C103.145226,16.0239229 107.673624,11.4206755 113.362275,8.05239521 C119.050927,4.6841149 125.263439,3 132,3 C138.736561,3 144.949073,4.6841149 150.637725,8.05239521 C156.326376,11.4206755 160.854774,16.0239229 164.223054,21.8622754 C167.591334,27.700628 169.275449,33.9879903 169.275449,40.7245509 C169.275449,47.4611115 167.591334,53.6736243 164.223054,59.3622754 C160.854774,65.0509266 156.326376,69.5793245 150.637725,72.9476048 C144.949073,76.3158851 138.736561,78 132,78 Z" id="Combined-Shape"></path>
                    <path d="M195,159.4 C201.00003,159.4 206.599974,157.866682 211.8,154.8 C216.866692,151.866652 220.866652,147.866692 223.8,142.8 C226.866682,137.599974 228.4,132.00003 228.4,126 C228.4,119.99997 226.866682,114.400026 223.8,109.2 C220.866652,104.133308 216.866692,100.133348 211.8,97.2 C206.599974,94.133318 201.00003,92.6 195,92.6 C188.99997,92.6 183.400026,94.133318 178.2,97.2 C173.133308,100.133348 169.133348,104.133308 166.2,109.2 C163.133318,114.400026 161.6,119.99997 161.6,126 C161.6,132.00003 163.133318,137.599974 166.2,142.8 C169.133348,147.866692 173.133308,151.866652 178.2,154.8 C183.400026,157.866682 188.99997,159.4 195,159.4 Z M195,84.4 C202.600038,84.4 209.633301,86.299981 216.1,90.1 C222.366698,93.700018 227.299982,98.633302 230.9,104.9 C234.700019,111.366699 236.6,118.399962 236.6,126 C236.6,133.600038 234.700019,140.633301 230.9,147.1 C227.299982,153.366698 222.366698,158.299982 216.1,161.9 C209.633301,165.700019 202.600038,167.6 195,167.6 C187.399962,167.6 180.366699,165.700019 173.9,161.9 C167.633302,158.233315 162.700018,153.266698 159.1,147 C155.299981,140.533301 153.4,133.533371 153.4,126 C153.4,118.466629 155.299981,111.466699 159.1,105 C162.766685,98.733302 167.733302,93.766685 174,90.1 C180.466699,86.299981 187.466629,84.4 195,84.4 Z M190.9,105.1 L199.1,105.1 L199.1,130.1 L190.9,130.1 L190.9,105.1 Z M190.9,138.5 L199.1,138.5 L199.1,146.9 L190.9,146.9 L190.9,138.5 Z" id="Error"></path>
                </g>
            </g>
        </g>
    </g>
</svg>